<?xml version="1.0" encoding="UTF-8" ?>
<!DOCTYPE svg PUBLIC "-//W3C//DTD SVG 1.1//EN" "http://www.w3.org/Graphics/SVG/1.1/DTD/svg11.dtd">
<svg width="600pt" height="600pt" viewBox="0 0 600 600" version="1.1" xmlns="http://www.w3.org/2000/svg">
<path fill="#91d6de" d=" M 0.00 0.00 L 16.47 0.00 C 18.46 2.18 20.37 4.45 22.55 6.45 C 215.04 198.92 407.54 391.40 600.00 583.90 L 600.00 600.00 L 580.54 600.00 C 556.25 575.15 531.44 550.79 506.93 526.14 C 337.96 357.14 168.94 188.20 0.00 19.17 L 0.00 0.00 Z" />
<path fill="none" d=" M 16.47 0.00 L 51.96 0.00 C 231.57 179.42 411.00 359.02 590.55 538.50 C 593.61 541.58 596.57 544.78 600.00 547.48 L 600.00 583.90 C 407.54 391.40 215.04 198.92 22.55 6.45 C 20.37 4.45 18.46 2.18 16.47 0.00 Z" />
<path fill="#91d6de" d=" M 51.96 0.00 L 87.42 0.00 C 258.36 170.75 429.12 341.68 600.00 512.49 L 600.00 547.48 C 596.57 544.78 593.61 541.58 590.55 538.50 C 411.00 359.02 231.57 179.42 51.96 0.00 Z" />
<path fill="none" d=" M 87.42 0.00 L 122.07 0.00 C 274.28 152.12 426.41 304.33 578.59 456.49 C 585.77 463.43 592.48 470.88 600.00 477.48 L 600.00 512.49 C 429.12 341.68 258.36 170.75 87.42 0.00 Z" />
<path fill="#91d6de" d=" M 122.07 0.00 L 157.60 0.00 C 305.06 147.48 452.55 294.93 600.00 442.42 L 600.00 477.48 C 592.48 470.88 585.77 463.43 578.59 456.49 C 426.41 304.33 274.28 152.12 122.07 0.00 Z" />
<path fill="none" d=" M 157.60 0.00 L 193.52 0.00 C 328.99 135.51 464.44 271.03 600.00 406.45 L 600.00 442.42 C 452.55 294.93 305.06 147.48 157.60 0.00 Z" />
<path fill="#91d6de" d=" M 193.52 0.00 L 228.82 0.00 C 352.63 123.63 476.31 247.39 600.00 371.13 L 600.00 406.45 C 464.44 271.03 328.99 135.51 193.52 0.00 Z" />
<path fill="none" d=" M 228.82 0.00 L 263.57 0.00 C 375.72 112.14 487.90 224.26 600.00 336.46 L 600.00 371.13 C 476.31 247.39 352.63 123.63 228.82 0.00 Z" />
<path fill="#91d6de" d=" M 263.57 0.00 L 299.51 0.00 C 301.69 2.65 304.00 5.19 306.53 7.51 C 404.32 105.40 502.28 203.13 600.00 301.10 L 600.00 336.46 C 487.90 224.26 375.72 112.14 263.57 0.00 Z" />
<path fill="none" d=" M 299.51 0.00 L 334.78 0.00 C 423.21 88.03 511.21 176.51 599.60 264.58 L 600.00 262.90 L 600.00 301.10 C 502.28 203.13 404.32 105.40 306.53 7.51 C 304.00 5.19 301.69 2.65 299.51 0.00 Z" />
<path fill="#91d6de" d=" M 334.78 0.00 L 370.51 0.00 C 403.86 33.84 437.66 67.24 471.20 100.89 C 514.12 143.87 557.16 186.74 600.00 229.79 L 600.00 262.90 L 599.60 264.58 C 511.21 176.51 423.21 88.03 334.78 0.00 Z" />
<path fill="none" d=" M 370.51 0.00 L 404.92 0.00 C 470.00 64.98 535.04 130.00 600.00 195.08 L 600.00 229.79 C 557.16 186.74 514.12 143.87 471.20 100.89 C 437.66 67.24 403.86 33.84 370.51 0.00 Z" />
<path fill="#91d6de" d=" M 404.92 0.00 L 440.46 0.00 C 493.58 53.25 546.83 106.39 600.00 159.60 L 600.00 195.08 C 535.04 130.00 470.00 64.98 404.92 0.00 Z" />
<path fill="none" d=" M 440.46 0.00 L 476.23 0.00 C 517.55 41.12 558.58 82.54 600.00 123.56 L 600.00 159.60 C 546.83 106.39 493.58 53.25 440.46 0.00 Z" />
<path fill="#91d6de" d=" M 476.23 0.00 L 511.70 0.00 C 541.19 29.36 570.56 58.86 600.00 88.28 L 600.00 123.56 C 558.58 82.54 517.55 41.12 476.23 0.00 Z" />
<path fill="none" d=" M 511.70 0.00 L 547.27 0.00 C 564.93 17.43 582.31 35.15 600.00 52.55 L 600.00 88.28 C 570.56 58.86 541.19 29.36 511.70 0.00 Z" />
<path fill="#91d6de" d=" M 547.27 0.00 L 582.82 0.00 C 588.55 5.73 594.32 11.41 600.00 17.19 L 600.00 52.55 C 582.31 35.15 564.93 17.43 547.27 0.00 Z" />
<path fill="none" d=" M 582.82 0.00 L 600.00 0.00 L 600.00 17.19 C 594.32 11.41 588.55 5.73 582.82 0.00 Z" />
<path fill="none" d=" M 0.00 19.17 C 168.94 188.20 337.96 357.14 506.93 526.14 C 531.44 550.79 556.25 575.15 580.54 600.00 L 545.98 600.00 C 366.22 420.10 186.32 240.34 6.53 60.48 C 4.55 58.26 2.30 56.34 0.00 54.47 L 0.00 19.17 Z" />
<path fill="#91d6de" d=" M 0.00 54.47 C 2.30 56.34 4.55 58.26 6.53 60.48 C 186.32 240.34 366.22 420.10 545.98 600.00 L 510.50 600.00 C 485.33 574.35 459.70 549.16 434.37 523.68 C 289.59 378.85 144.72 234.12 0.00 89.24 L 0.00 54.47 Z" />
<path fill="none" d=" M 0.00 89.24 C 144.72 234.12 289.59 378.85 434.37 523.68 C 459.70 549.16 485.33 574.35 510.50 600.00 L 474.80 600.00 C 329.63 454.94 184.56 309.77 39.42 164.67 C 26.25 151.65 13.37 138.31 0.00 125.49 L 0.00 89.24 Z" />
<path fill="#91d6de" d=" M 0.00 125.49 C 13.37 138.31 26.25 151.65 39.42 164.67 C 184.56 309.77 329.63 454.94 474.80 600.00 L 439.42 600.00 C 386.71 547.56 334.25 494.86 281.63 442.34 C 187.77 348.44 93.87 254.58 0.00 160.69 L 0.00 125.49 Z" />
<path fill="none" d=" M 0.00 160.69 C 93.87 254.58 187.77 348.44 281.63 442.34 C 334.25 494.86 386.71 547.56 439.42 600.00 L 404.65 600.00 C 269.77 465.14 134.98 330.19 0.00 195.43 L 0.00 160.69 Z" />
<path fill="#91d6de" d=" M 0.00 195.43 C 134.98 330.19 269.77 465.14 404.65 600.00 L 369.16 600.00 C 246.13 476.91 123.01 353.90 0.00 230.79 L 0.00 195.43 Z" />
<path fill="none" d=" M 0.00 230.79 C 123.01 353.90 246.13 476.91 369.16 600.00 L 333.35 600.00 C 222.18 488.94 111.07 377.81 0.00 266.65 L 0.00 230.79 Z" />
<path fill="#91d6de" d=" M 0.00 266.65 C 111.07 377.81 222.18 488.94 333.35 600.00 L 297.58 600.00 C 285.68 587.39 273.11 575.40 260.93 563.05 C 173.97 476.05 86.96 389.09 0.00 302.09 L 0.00 266.65 Z" />
<path fill="none" d=" M 0.00 302.09 C 86.96 389.09 173.97 476.05 260.93 563.05 C 273.11 575.40 285.68 587.39 297.58 600.00 L 263.25 600.00 C 175.49 512.26 87.72 424.52 0.00 336.75 L 0.00 302.09 Z" />
<path fill="#91d6de" d=" M 0.00 336.75 C 87.72 424.52 175.49 512.26 263.25 600.00 L 227.48 600.00 C 216.49 588.19 204.71 577.13 193.44 565.59 C 128.97 501.10 64.45 436.65 0.00 372.14 L 0.00 336.75 Z" />
<path fill="none" d=" M 0.00 372.14 C 64.45 436.65 128.97 501.10 193.44 565.59 C 204.71 577.13 216.49 588.19 227.48 600.00 L 191.87 600.00 C 133.25 541.34 74.58 482.71 15.95 424.06 C 10.63 418.86 5.60 413.37 0.00 408.47 L 0.00 372.14 Z" />
<path fill="#91d6de" d=" M 0.00 408.47 C 5.60 413.37 10.63 418.86 15.95 424.06 C 74.58 482.71 133.25 541.34 191.87 600.00 L 156.47 600.00 C 104.30 547.86 52.12 495.72 0.00 443.53 L 0.00 408.47 Z" />
<path fill="none" d=" M 0.00 443.53 C 52.12 495.72 104.30 547.86 156.47 600.00 L 121.85 600.00 C 92.84 571.05 63.87 542.04 34.88 513.06 C 23.21 501.57 11.90 489.70 0.00 478.44 L 0.00 443.53 Z" />
<path fill="#91d6de" d=" M 0.00 478.44 C 11.90 489.70 23.21 501.57 34.88 513.06 C 63.87 542.04 92.84 571.05 121.85 600.00 L 86.39 600.00 C 57.54 571.27 28.76 542.46 0.00 513.62 L 0.00 478.44 Z" />
<path fill="none" d=" M 0.00 513.62 C 28.76 542.46 57.54 571.27 86.39 600.00 L 50.50 600.00 C 33.65 583.21 16.89 566.33 0.00 549.59 L 0.00 513.62 Z" />
<path fill="#91d6de" d=" M 0.00 549.59 C 16.89 566.33 33.65 583.21 50.50 600.00 L 15.13 600.00 C 10.02 595.04 4.99 589.98 0.00 584.90 L 0.00 549.59 Z" />
<path fill="none" d=" M 0.00 584.90 C 4.99 589.98 10.02 595.04 15.13 600.00 L 0.00 600.00 L 0.00 584.90 Z" />
</svg>
